<?xml version="1.0" encoding="UTF-8" standalone="no"?>
<!-- Created with Inkscape (http://www.inkscape.org/) -->

<svg
   width="90.000191mm"
   height="89.99968mm"
   viewBox="0 0 90.000191 89.99968"
   version="1.1"
   id="svg1"
   xml:space="preserve"
   xmlns="http://www.w3.org/2000/svg"
   xmlns:svg="http://www.w3.org/2000/svg"><defs
     id="defs1" /><g
     id="layer1"
     transform="translate(-59.999901,-103.50017)"><g
       id="g11"
       transform="translate(-5.25e-5,2e-5)"><g
         id="g13"
         style="fill:#ECECEC"><path
           id="rect12"
           style="fill:#ECECEC;stroke-width:0.264583"
           d="m 59.999955,113.50005 v 69.99986 H 79.999768 V 173.5 h -9.999906 v -50.00004 h 9.999906 v -9.99991 z m 69.999865,0 v 9.99991 h 10.00042 V 173.5 h -10.00042 v 9.99991 h 20.00033 v -69.99986 z" /><path
           id="rect12-6"
           style="fill:#ECECEC;stroke-width:0.261074"
           d="m 69.999862,103.50014 v 19.99982 h 9.999906 v -9.99991 h 49.481732 0.51832 v 9.99991 h 10.00042 v -19.99982 h -0.52142 z m 0,69.99986 v 19.99982 H 140.00024 V 173.5 h -10.00042 v 9.99991 H 79.999768 V 173.5 Z" /><path
           id="rect13"
           style="fill:#ECECEC;stroke-width:0.168135"
           d="m 59.999955,143.49977 v 10.00042 h 30.000236 v -10.00042 z m 59.999955,0 v 10.00042 h 30.00024 v -10.00042 z" /><path
           id="rect13-4"
           style="fill:#ECECEC;stroke-width:0.217061"
           d="M 79.999768,133.49986 V 163.5001 H 100.0001 v -9.99991 h -9.999909 v -10.00042 h 9.999909 v -9.99991 z m 30.000232,0 v 9.99991 h 9.99991 v 10.00042 H 110 v 9.99991 h 19.99982 v -30.00024 z" /><path
           id="rect13-4-3"
           style="fill:#ECECEC;stroke-width:0.217061"
           d="m 123.49996,-90.000191 h 19.99981 v -9.999909 h -19.99981 z m 0,-19.999809 h 19.99981 v -9.99991 h -19.99981 z m 30.00023,19.999809 H 173.5 v -9.999909 h -19.99981 z m 0,-19.999809 H 173.5 v -9.99991 h -19.99981 z"
           transform="rotate(90)" /></g></g></g></svg>
